<?xml version="1.0" encoding="UTF-8" standalone="no"?>
<svg width="117px" height="72px" viewBox="0 0 117 72" version="1.1" xmlns="http://www.w3.org/2000/svg" xmlns:xlink="http://www.w3.org/1999/xlink" xmlns:sketch="http://www.bohemiancoding.com/sketch/ns">
    <!-- Generator: Sketch 3.3.3 (12081) - http://www.bohemiancoding.com/sketch -->
    <title>{{ copy 2</title>
    <desc>Created with Sketch.</desc>
    <defs></defs>
    <g id="Page-1" stroke="none" stroke-width="1" fill="none" fill-rule="evenodd" sketch:type="MSPage">
        <g id="Landing-Page" sketch:type="MSArtboardGroup" transform="translate(-661.000000, -1753.000000)" fill="#008CE8">
            <g id="Footer" sketch:type="MSLayerGroup" transform="translate(103.000000, 1753.000000)">
                <path d="M616.66075,-22 L616.66075,-19.1085878 C612.377155,-18.2947048 609.218051,-16.7847602 607.183344,-14.5787088 C605.148636,-12.3726573 604.131297,-9.85608302 604.131297,-7.02891031 C604.131297,-4.15890166 604.645321,-0.592862307 605.673384,3.66931472 C606.701447,7.93149175 607.21547,11.6474547 607.21547,14.817315 C607.21547,17.7301596 606.348055,20.6965046 604.613199,23.7164391 C602.878343,26.7363736 600.383187,29.3172009 597.127655,31.4589984 C594.857349,32.9582566 591.237766,34.3718218 586.268796,35.6997362 C591.580453,37.3703383 595.435631,39.0194976 597.834444,40.6472637 C601.004305,42.8318972 603.381664,45.4020156 604.966594,48.3576962 C606.551524,51.3133767 607.343978,54.1190894 607.343978,56.7749183 C607.343978,59.3450753 606.819245,62.7718999 605.769764,67.0554949 C604.720283,71.3390899 604.195551,75.0657616 604.195551,78.2356219 C604.195551,81.2769744 605.170054,83.900637 607.11909,86.1066884 C609.068126,88.3127398 612.248647,89.8441021 616.66075,90.7008211 L616.66075,93.7207405 L614.411874,93.7207405 C610.042607,93.7635764 605.898291,92.7569467 601.978802,90.7008211 C598.059312,88.6446955 595.103676,85.9996152 593.111804,82.765501 C591.119933,79.5313868 590.124012,76.3937005 590.124012,73.3523481 C590.124012,70.3966675 590.787959,66.3487309 592.115873,61.2084169 C593.1011,57.3960174 593.593706,53.9906104 593.593706,50.9920939 C593.593706,47.6080539 592.522824,44.7273794 590.381026,42.3499842 C588.239229,39.972589 585.112251,38.4412267 581,37.7558515 L581,33.8363817 C585.112251,33.1510065 588.239229,31.5661001 590.381026,29.081615 C592.522824,26.5971299 593.593706,23.5772407 593.593706,20.0218569 C593.593706,17.1090123 593.122518,13.8321113 592.180127,10.1910555 C590.852213,5.09357745 590.188265,1.21698212 590.188265,-1.43884678 C590.188265,-4.22318353 591.023554,-7.05031383 592.694156,-9.92032248 C594.364758,-12.7903311 596.463688,-15.1248554 598.991009,-16.9239653 C601.51833,-18.7230752 604.281207,-20.0295521 607.279724,-20.8434351 C609.592865,-21.4859744 612.719843,-21.8714921 616.66075,-22 L616.66075,-22 Z M652.513408,-22 L652.513408,-19.1085878 C648.229813,-18.2947048 645.070709,-16.7847602 643.036002,-14.5787088 C641.001294,-12.3726573 639.983956,-9.85608302 639.983956,-7.02891031 C639.983956,-4.15890166 640.497979,-0.592862307 641.526042,3.66931472 C642.554105,7.93149175 643.068129,11.6474547 643.068129,14.817315 C643.068129,17.7301596 642.200714,20.6965046 640.465858,23.7164391 C638.731002,26.7363736 636.235845,29.3172009 632.980313,31.4589984 C630.710007,32.9582566 627.090424,34.3718218 622.121454,35.6997362 C627.433112,37.3703383 631.288289,39.0194976 633.687102,40.6472637 C636.856963,42.8318972 639.234322,45.4020156 640.819252,48.3576962 C642.404183,51.3133767 643.196636,54.1190894 643.196636,56.7749183 C643.196636,59.3450753 642.671903,62.7718999 641.622423,67.0554949 C640.572942,71.3390899 640.048209,75.0657616 640.048209,78.2356219 C640.048209,81.2769744 641.022712,83.900637 642.971748,86.1066884 C644.920784,88.3127398 648.101306,89.8441021 652.513408,90.7008211 L652.513408,93.7207405 L650.264532,93.7207405 C645.895265,93.7635764 641.750949,92.7569467 637.83146,90.7008211 C633.91197,88.6446955 630.956334,85.9996152 628.964463,82.765501 C626.972591,79.5313868 625.97667,76.3937005 625.97667,73.3523481 C625.97667,70.3966675 626.640617,66.3487309 627.968532,61.2084169 C628.953759,57.3960174 629.446365,53.9906104 629.446365,50.9920939 C629.446365,47.6080539 628.375482,44.7273794 626.233684,42.3499842 C624.091887,39.972589 620.964909,38.4412267 616.852658,37.7558515 L616.852658,33.8363817 C620.964909,33.1510065 624.091887,31.5661001 626.233684,29.081615 C628.375482,26.5971299 629.446365,23.5772407 629.446365,20.0218569 C629.446365,17.1090123 628.975176,13.8321113 628.032785,10.1910555 C626.704871,5.09357745 626.040924,1.21698212 626.040924,-1.43884678 C626.040924,-4.22318353 626.876212,-7.05031383 628.546814,-9.92032248 C630.217416,-12.7903311 632.316346,-15.1248554 634.843667,-16.9239653 C637.370988,-18.7230752 640.133866,-20.0295521 643.132382,-20.8434351 C645.445524,-21.4859744 648.572501,-21.8714921 652.513408,-22 L652.513408,-22 Z" id="{{-copy-2" sketch:type="MSShapeGroup" transform="translate(616.756704, 35.861026) scale(1, -1) rotate(-270.000000) translate(-616.756704, -35.861026) "></path>
            </g>
        </g>
    </g>
</svg>