<?xml version="1.0" encoding="UTF-8" standalone="no"?>
<svg width="117px" height="72px" viewBox="0 0 117 72" version="1.1" xmlns="http://www.w3.org/2000/svg" xmlns:xlink="http://www.w3.org/1999/xlink" xmlns:sketch="http://www.bohemiancoding.com/sketch/ns">
    <!-- Generator: Sketch 3.3.3 (12081) - http://www.bohemiancoding.com/sketch -->
    <title>{{</title>
    <desc>Created with Sketch.</desc>
    <defs></defs>
    <g id="Page-1" stroke="none" stroke-width="1" fill="none" fill-rule="evenodd" sketch:type="MSPage">
        <g id="Landing-Page" sketch:type="MSArtboardGroup" transform="translate(-661.000000, 0.000000)" fill="#008CE8">
            <g id="Header" sketch:type="MSLayerGroup" transform="translate(456.000000, 0.000000)">
                <g id="Logo" transform="translate(172.000000, 0.000000)" sketch:type="MSShapeGroup">
                    <path d="M149.61773,35.7650718 L146.726318,35.7650718 C145.912435,31.4814768 144.40249,28.3223729 142.196439,26.2876653 C139.990387,24.2529576 137.473813,23.2356191 134.64664,23.2356191 C131.776632,23.2356191 128.210592,23.7496428 123.948415,24.7777056 C119.686238,25.8057684 115.970275,26.3197921 112.800415,26.3197921 C109.887571,26.3197921 106.921225,25.4523771 103.901291,23.7175211 C100.881357,21.9826651 98.3005292,19.4875085 96.1587317,16.2319763 C94.6594735,13.9616709 93.2459083,10.3420874 91.9179939,5.37311721 C90.2473918,10.684775 88.5982325,14.5399527 86.9704664,16.9387659 C84.7858329,20.1086262 82.2157145,22.4859858 79.2600339,24.0709159 C76.3043534,25.6558461 73.4986407,26.4482993 70.8428118,26.4482993 C68.2726548,26.4482993 64.8458302,25.9235667 60.5622352,24.874086 C56.2786402,23.8246052 52.5519684,23.2998727 49.3821081,23.2998727 C46.3407557,23.2998727 43.7170931,24.2743759 41.5110417,26.2234116 C39.3049902,28.1724474 37.773628,31.352969 36.916909,35.7650718 L33.8969896,35.7650718 L33.8969896,33.5161957 C33.8541537,29.1469288 34.8607834,25.0026128 36.916909,21.0831233 C38.9730346,17.1636339 41.6181148,14.2079977 44.8522291,12.216126 C48.0863433,10.2242543 51.2240296,9.22833344 54.265382,9.22833344 C57.2210626,9.22833344 61.2689991,9.89228071 66.4093132,11.2201952 C70.2217127,12.205422 73.6271197,12.698028 76.6256362,12.698028 C80.0096762,12.698028 82.8903506,11.6271454 85.2677459,9.48534786 C87.6451411,7.34355035 89.1765033,4.2165729 89.8618785,0.104321699 L93.7813484,0.104321699 C94.4667236,4.2165729 96.05163,7.34355035 98.5361151,9.48534786 C101.0206,11.6271454 104.040489,12.698028 107.595873,12.698028 C110.508718,12.698028 113.785619,12.2268397 117.426675,11.2844488 C122.524153,9.95653431 126.400748,9.29258704 129.056577,9.29258704 C131.840914,9.29258704 134.668044,10.1278755 137.538053,11.7984776 C140.408061,13.4690796 142.742585,15.5680097 144.541695,18.0953308 C146.340805,20.6226518 147.647282,23.3855292 148.461165,26.3840457 C149.103704,28.697187 149.489222,31.8241644 149.61773,35.7650718 L149.61773,35.7650718 Z M146.726318,71.6177301 C145.912435,67.3341351 144.40249,64.1750312 142.196439,62.1403235 C139.990387,60.1056159 137.473813,59.0882773 134.64664,59.0882773 C131.776632,59.0882773 128.210592,59.602301 123.948415,60.6303638 C119.686238,61.6584266 115.970275,62.1724503 112.800415,62.1724503 C109.887571,62.1724503 106.921225,61.3050354 103.901291,59.5701794 C100.881357,57.8353234 98.3005292,55.3401667 96.1587317,52.0846345 C94.6594735,49.8143292 93.2459083,46.1947457 91.9179939,41.2257755 C90.2473918,46.5374333 88.5982325,50.392611 86.9704664,52.7914242 C84.7858329,55.9612845 82.2157145,58.338644 79.2600339,59.9235742 C76.3043534,61.5085043 73.4986407,62.3009575 70.8428118,62.3009575 C68.2726548,62.3009575 64.8458302,61.776225 60.5622352,60.7267442 C56.2786402,59.6772635 52.5519684,59.152531 49.3821081,59.152531 C46.3407557,59.152531 43.7170931,60.1270342 41.5110417,62.0760699 C39.3049902,64.0251057 37.773628,67.2056272 36.916909,71.6177301 L33.8969896,71.6177301 L33.8969896,69.368854 C33.8541537,64.9995871 34.8607834,60.8552711 36.916909,56.9357816 C38.9730346,53.0162922 41.6181148,50.060656 44.8522291,48.0687843 C48.0863433,46.0769126 51.2240296,45.0809917 54.265382,45.0809917 C57.2210626,45.0809917 61.2689991,45.744939 66.4093132,47.0728534 C70.2217127,48.0580803 73.6271197,48.5506863 76.6256362,48.5506863 C80.0096762,48.5506863 82.8903506,47.4798036 85.2677459,45.3380061 C87.6451411,43.1962086 89.1765033,40.0692312 89.8618785,35.95698 L93.7813484,35.95698 C94.4667236,40.0692312 96.05163,43.1962086 98.5361151,45.3380061 C101.0206,47.4798036 104.040489,48.5506863 107.595873,48.5506863 C110.508718,48.5506863 113.785619,48.0794979 117.426675,47.137107 C122.524153,45.8091926 126.400748,45.1452453 129.056577,45.1452453 C131.840914,45.1452453 134.668044,45.9805338 137.538053,47.6511359 C140.408061,49.3217379 142.742585,51.420668 144.541695,53.947989 C146.340805,56.4753101 147.647282,59.2381874 148.461165,62.2367039 C149.103704,64.5498452 149.489222,67.6768227 149.61773,71.6177301 L146.726318,71.6177301 Z" id="{{"></path>
                </g>
            </g>
        </g>
    </g>
</svg>